<?xml version="1.0" encoding="UTF-8"?>
<svg id="Layer_1" data-name="Layer 1" xmlns="http://www.w3.org/2000/svg" xmlns:xlink="http://www.w3.org/1999/xlink" viewBox="0 0 1634.74 529.55">
  <defs>
    <style>
      .cls-1 {
        font-family: Candara-BoldItalic, Candara;
        font-size: 73px;
        font-style: italic;
        font-weight: 700;
      }

      .cls-1, .cls-2 {
        isolation: isolate;
      }

      .cls-1, .cls-3 {
        fill: #fff;
      }

      .cls-4 {
        fill: #000;
      }

      .cls-4, .cls-5, .cls-3 {
        stroke-width: 0px;
      }

      .cls-5, .cls-6 {
        fill: #6de31d;
      }

      .cls-7 {
        fill: url(#linear-gradient);
        stroke: #6de31d;
        stroke-linejoin: round;
        stroke-width: 8px;
      }

      .cls-6 {
        stroke: #000;
        stroke-miterlimit: 10;
        stroke-width: 7px;
      }
    </style>
    <linearGradient id="linear-gradient" x1="109.49" y1="621.75" x2="595.99" y2="135.25" gradientTransform="translate(0 634) scale(1 -1)" gradientUnits="userSpaceOnUse">
      <stop offset="0" stop-color="#090"/>
      <stop offset=".05" stop-color="#007600"/>
      <stop offset=".11" stop-color="#005600"/>
      <stop offset=".17" stop-color="#003b00"/>
      <stop offset=".25" stop-color="#002500"/>
      <stop offset=".33" stop-color="#001400"/>
      <stop offset=".44" stop-color="#000800"/>
      <stop offset=".59" stop-color="#000100"/>
      <stop offset="1" stop-color="#000"/>
    </linearGradient>
  </defs>
  <polygon class="cls-3" points="799.74 158 799.74 395.74 860.74 395.74 860.74 158 933.03 158 933.03 93.81 726.32 93.81 726.32 158.84 799.74 158"/>
  <polygon class="cls-3" points="944.74 113 944.74 373.29 963.74 373.29 963.74 395.74 1148.74 395.74 1148.74 331 1003.74 331 1003.74 279 1094.74 279 1094.74 214 1004.74 214 1004.74 159 1148.74 159 1148.74 93.81 964.77 93.81 964.74 113 944.74 113"/>
  <polygon class="cls-3" points="1162.74 114 1183.74 114 1183.74 92.26 1348.74 92.26 1348.74 116 1365.74 116 1365.74 178 1306.74 178 1306.74 156 1222.74 156 1222.74 329 1306.19 329 1306.19 311 1365.74 311 1365.74 372.52 1348.74 372.52 1348.74 395.74 1183.1 395.74 1183.1 376 1162.74 376 1162.74 114"/>
  <polygon class="cls-5" points="1378.74 216 1378.74 381.55 1390.58 381.55 1390.58 395.74 1489.74 395.74 1489.74 382 1502.74 382 1502.74 68.26 1521.16 68.26 1484.74 0 1449.95 66.19 1467.74 66.19 1467.74 354 1415.74 354 1415.74 216 1378.74 216"/>
  <path class="cls-5" d="M1622.74,227v-13h-114v181.74h37.84v-71.61h76.16v-12.13h12v-85h-12ZM1595.74,287.1h-50.32v-36.1h50.32v36.1Z"/>
  <g id="Layer_3" data-name="Layer 3">
    <path class="cls-7" d="M684.24,79.5H42.24l-24,24v74H4v57.98h14.24v193.02h50.02v-24h38.98v24h23.73v-21.92h12.27v28.92h201v-31h346l18-18V103.5l-24-24ZM199.74,390c-80.63,0-146-65.37-146-146S119.11,98,199.74,98s146,65.37,146,146-65.37,146-146,146h0ZM531.74,390c-80.63,0-146-65.37-146-146s65.37-146,146-146,146,65.37,146,146-65.37,146-146,146Z"/>
    <g>
      <circle class="cls-6" cx="52.74" cy="115" r="20"/>
      <circle class="cls-6" cx="52.74" cy="115" r="8"/>
    </g>
    <g>
      <circle class="cls-6" cx="52.74" cy="374" r="20"/>
      <circle class="cls-6" cx="52.74" cy="374" r="8"/>
    </g>
    <g>
      <circle class="cls-6" cx="365.74" cy="115" r="20"/>
      <circle class="cls-6" cx="365.74" cy="115" r="8"/>
    </g>
    <g>
      <circle class="cls-6" cx="365.74" cy="374" r="20"/>
      <circle class="cls-6" cx="365.74" cy="374" r="8"/>
    </g>
    <g>
      <circle class="cls-6" cx="678.74" cy="374" r="20"/>
      <circle class="cls-6" cx="678.74" cy="374" r="8"/>
    </g>
    <g>
      <circle class="cls-6" cx="678.74" cy="115" r="20"/>
      <circle class="cls-6" cx="678.74" cy="115" r="8"/>
    </g>
    <circle class="cls-4" cx="201.51" cy="244.67" r="28.98"/>
    <path class="cls-4" d="M79.43,189.34s61.48-21.08,89.58,5.27l13.91-6.63s-8.64-39.04-66.6-46.07c0,0-22.83,12.3-36.89,47.43h0Z"/>
    <path class="cls-4" d="M257.18,124.18s21.08,61.48-5.27,89.58l6.63,13.91s39.04-8.64,46.07-66.6c0,0-12.3-22.83-47.43-36.89Z"/>
    <path class="cls-4" d="M154.57,119.44s58.38,28.57,59.62,67.07l14.52,5.15s21.5-33.72-14.52-79.67c0,0-24.84-7.45-59.62,7.45Z"/>
    <path class="cls-4" d="M74.86,290.25s28.57-58.38,67.07-59.62l5.15-14.52s-33.72-21.5-79.67,14.52c0,0-7.45,24.84,7.45,59.62h0Z"/>
    <path class="cls-4" d="M144.03,365.29s-21.08-61.48,5.27-89.58l-6.63-13.91s-39.04,8.64-46.07,66.6c0,0,12.3,22.83,47.43,36.89h0Z"/>
    <path class="cls-4" d="M247.09,369.28s-58.38-28.57-59.62-67.07l-14.52-5.15s-21.5,33.72,14.52,79.67c0,0,24.84,7.45,59.62-7.45h0Z"/>
    <path class="cls-4" d="M322.13,300.11s-61.48,21.08-89.58-5.27l-13.91,6.63s8.64,39.04,66.61,46.07c0,0,22.83-12.3,36.89-47.43h-.01Z"/>
    <path class="cls-4" d="M326.29,198.24s-28.57,58.38-67.07,59.62l-5.15,14.52s33.72,21.5,79.67-14.52c0,0,7.45-24.84-7.45-59.62h0Z"/>
    <circle class="cls-4" cx="531.51" cy="244.67" r="28.98" transform="translate(102.06 642.09) rotate(-67.5)"/>
    <path class="cls-4" d="M409.43,189.34s61.48-21.08,89.58,5.27l13.91-6.63s-8.64-39.04-66.6-46.07c0,0-22.83,12.3-36.89,47.43Z"/>
    <path class="cls-4" d="M587.18,124.18s21.08,61.48-5.27,89.58l6.63,13.91s39.04-8.64,46.07-66.6c0,0-12.3-22.83-47.43-36.89Z"/>
    <path class="cls-4" d="M484.57,119.44s58.38,28.57,59.62,67.07l14.52,5.15s21.5-33.72-14.52-79.67c0,0-24.84-7.45-59.62,7.45Z"/>
    <path class="cls-4" d="M404.86,290.25s28.57-58.38,67.07-59.62l5.15-14.52s-33.72-21.5-79.67,14.52c0,0-7.45,24.84,7.45,59.62Z"/>
    <path class="cls-4" d="M474.03,365.29s-21.08-61.48,5.27-89.58l-6.63-13.91s-39.04,8.64-46.07,66.6c0,0,12.3,22.83,47.43,36.89h0Z"/>
    <path class="cls-4" d="M577.09,369.28s-58.38-28.57-59.62-67.07l-14.52-5.15s-21.5,33.72,14.52,79.67c0,0,24.84,7.45,59.62-7.45h0Z"/>
    <path class="cls-4" d="M652.13,300.11s-61.48,21.08-89.58-5.27l-13.91,6.63s8.64,39.04,66.61,46.07c0,0,22.83-12.3,36.89-47.43h-.01Z"/>
    <path class="cls-4" d="M656.29,198.24s-28.57,58.38-67.07,59.62l-5.15,14.52s33.72,21.5,79.67-14.52c0,0,7.45-24.84-7.45-59.62h0Z"/>
  </g>
  <g id="Text2">
    <g class="cls-2">
      <text class="cls-1" transform="translate(365.61 509.34)"><tspan x="0" y="0">HACIEN</tspan></text>
      <text class="cls-1" transform="translate(597.01 509.34)"><tspan x="0" y="0">D</tspan></text>
      <text class="cls-1" transform="translate(642.67 509.34)"><tspan x="0" y="0">O ACCESIBLE LA TECNOL</tspan></text>
      <text class="cls-1" transform="translate(1379.87 509.34)"><tspan x="0" y="0">O</tspan></text>
      <text class="cls-1" transform="translate(1428.1 509.34)"><tspan x="0" y="0">GÍA</tspan></text>
    </g>
  </g>
</svg>